<?xml version="1.0" encoding="UTF-8" standalone="no"?> <!-- Created with Vectornator for iOS (http://vectornator.io/) --><!DOCTYPE svg PUBLIC "-//W3C//DTD SVG 1.1//EN" "http://www.w3.org/Graphics/SVG/1.1/DTD/svg11.dtd">
<svg style="fill-rule:evenodd;clip-rule:evenodd;stroke-linecap:round;stroke-linejoin:round;" xmlns:vectornator="http://vectornator.io" xmlns:xlink="http://www.w3.org/1999/xlink" xmlns="http://www.w3.org/2000/svg" xml:space="preserve" version="1.1" viewBox="0 0 600 600">
<metadata>
<vectornator:setting key="DynamicGuides" value="1"/>
<vectornator:setting key="CMYKEnabledKey" value="0"/>
<vectornator:setting key="Units" value="Points"/>
<vectornator:setting key="RulersVisible" value="1"/>
<vectornator:setting key="SnapToGuides" value="1"/>
<vectornator:setting key="GridSpacing" value="36"/>
</metadata>
<defs/>
<g id="g897" vectornator:layerName="g897">
<path stroke="#979797" stroke-width="0.607957" d="M100.304+300C100.304+189.691+189.711+100.268+300+100.268C410.289+100.268+499.696+189.691+499.696+300C499.696+410.309+410.289+499.732+300+499.732C189.711+499.732+100.304+410.309+100.304+300Z" fill="#252525" stroke-linecap="butt" opacity="0" stroke-linejoin="miter"/>
<path stroke="#063f12" stroke-opacity="0" stroke-width="1.73" d="M170.261+120L447.207+120C470.141+120+488.733+138.409+488.733+161.118L488.733+438.882C488.733+461.591+470.141+480+447.207+480L170.261+480C147.326+480+128.735+461.591+128.735+438.882L128.735+161.118C128.735+138.409+147.326+120+170.261+120Z" fill="#252525" stroke-linecap="butt" opacity="1" stroke-linejoin="miter"/>
<path d="M242.658+437.007L478.049+334.614L244.752+334.614L242.658+437.007Z" opacity="1" fill="#f4f4f4"/>
<path d="M318.712+404.31L246.486+162.884L242.275+437.796L318.712+404.31Z" opacity="1" fill="#f4f4f4"/>
<path d="M245.955+212.482L261.788+212.535L245.955+219.551L245.955+212.482Z" fill-opacity="0.142348" fill="#444444" opacity="1"/>
<path d="M298.234+334.692L310.447+334.692L319.234+403.691L298.234+334.692Z" fill-opacity="0.142348" fill="#444444" opacity="1"/>
<path d="M246.799+163.516L148.162+212.629L261.942+212.629L246.799+163.516Z" opacity="1" fill="#fcfcfc"/>
<path stroke="#063f12" stroke-opacity="0" stroke-width="0.607957" d="M320+208.585C320+170.706+350.707+140+388.586+140C426.465+140+457.172+170.706+457.172+208.585C457.172+246.463+426.465+277.169+388.586+277.169C350.707+277.169+320+246.463+320+208.585Z" fill="#b81818" stroke-linecap="butt" opacity="1" stroke-linejoin="miter"/>
</g>
</svg>
